<svg width="17" height="10" viewBox="0 0 17 10" fill="none" xmlns="http://www.w3.org/2000/svg">
<path fill-rule="evenodd" clip-rule="evenodd" d="M11.5399 0.208095C11.6057 0.142131 11.6838 0.0897967 11.7699 0.0540883C11.856 0.01838 11.9482 0 12.0414 0C12.1345 0 12.2268 0.01838 12.3128 0.0540883C12.3989 0.0897967 12.4771 0.142131 12.5429 0.208095L16.7928 4.458C16.8587 4.5238 16.9111 4.60196 16.9468 4.68802C16.9825 4.77407 17.0009 4.86632 17.0009 4.95949C17.0009 5.05266 16.9825 5.14491 16.9468 5.23097C16.9111 5.31702 16.8587 5.39518 16.7928 5.46098L12.5429 9.71089C12.4099 9.84389 12.2295 9.91861 12.0414 9.91861C11.8533 9.91861 11.6729 9.84389 11.5399 9.71089C11.4069 9.57788 11.3322 9.39749 11.3322 9.2094C11.3322 9.0213 11.4069 8.84091 11.5399 8.70791L15.2897 4.95949L11.5399 1.21107C11.4739 1.14528 11.4216 1.06711 11.3859 0.981059C11.3502 0.895005 11.3318 0.802752 11.3318 0.709584C11.3318 0.616415 11.3502 0.524162 11.3859 0.438109C11.4216 0.352055 11.4739 0.273891 11.5399 0.208095Z" fill="white"/>
<path fill-rule="evenodd" clip-rule="evenodd" d="M0 4.95948C0 4.77162 0.0746263 4.59146 0.207462 4.45862C0.340297 4.32579 0.52046 4.25116 0.708318 4.25116H15.583C15.7708 4.25116 15.951 4.32579 16.0838 4.45862C16.2167 4.59146 16.2913 4.77162 16.2913 4.95948C16.2913 5.14734 16.2167 5.3275 16.0838 5.46033C15.951 5.59317 15.7708 5.6678 15.583 5.6678H0.708318C0.52046 5.6678 0.340297 5.59317 0.207462 5.46033C0.0746263 5.3275 0 5.14734 0 4.95948Z" fill="white"/>
</svg>
